<svg xmlns="http://www.w3.org/2000/svg" viewBox="0,0,2575.470458984375,1261.127685546875" width="2575" height="1261"><g transform="translate(155.4705352783203, 162.009521484375)"><g transform="translate(-60,60)"><rect stroke-width="2" stroke="#2c3e50" fill="#ecf0f1" stroke-dasharray="false" width="390" height="60"/><text text-vertical-anchor="middle" text-anchor="middle" font-size="14" fill="#333333" transform="matrix(1,0,0,1,195,30)"/></g><g transform="translate(-60,140)"><rect stroke-width="2" stroke="#2c3e50" fill="#ecf0f1" stroke-dasharray="false" width="390" height="60"/><text text-vertical-anchor="middle" text-anchor="middle" font-size="14" fill="#333333" transform="matrix(1,0,0,1,195,30)"/></g><g transform="translate(680,140)"><rect stroke-width="2" stroke="#2c3e50" fill="#ecf0f1" stroke-dasharray="false" width="280" height="60"/><text text-vertical-anchor="middle" text-anchor="middle" font-size="14" fill="#333333" transform="matrix(1,0,0,1,140,30)"/></g><g transform="translate(1020,140)"><rect stroke-width="2" stroke="#2c3e50" fill="#ecf0f1" stroke-dasharray="false" width="290" height="60"/><text text-vertical-anchor="middle" text-anchor="middle" font-size="14" fill="#333333" transform="matrix(1,0,0,1,145,30)"/></g><g transform="translate(1370,140)"><rect stroke-width="2" stroke="#2c3e50" fill="#ecf0f1" stroke-dasharray="false" width="290" height="60"/><text text-vertical-anchor="middle" text-anchor="middle" font-size="14" fill="#333333" transform="matrix(1,0,0,1,145,30)"/></g><g transform="translate(1880,60)"><rect stroke-width="2" stroke="#2c3e50" fill="#ecf0f1" stroke-dasharray="false" width="290" height="60"/><text text-vertical-anchor="middle" text-anchor="middle" font-size="14" fill="#333333" transform="matrix(1,0,0,1,145,30)"/></g><g transform="translate(1880,220)"><rect stroke-width="2" stroke="#2c3e50" fill="#ecf0f1" stroke-dasharray="false" width="290" height="60"/><text text-vertical-anchor="middle" text-anchor="middle" font-size="14" fill="#333333" transform="matrix(1,0,0,1,145,30)"/></g><g transform="translate(-70,500)"><rect stroke-width="2" stroke="#2c3e50" fill="#ecf0f1" stroke-dasharray="false" width="280" height="60"/><text text-vertical-anchor="middle" text-anchor="middle" font-size="14" fill="#333333" transform="matrix(1,0,0,1,140,30)"/></g><g transform="translate(540,420)"><rect stroke-width="2" stroke="#2c3e50" fill="#ecf0f1" stroke-dasharray="false" width="280" height="60"/><text text-vertical-anchor="middle" text-anchor="middle" font-size="14" fill="#333333" transform="matrix(1,0,0,1,140,30)"/></g><g transform="translate(540,580)"><rect stroke-width="2" stroke="#2c3e50" fill="#ecf0f1" stroke-dasharray="false" width="280" height="60"/><text text-vertical-anchor="middle" text-anchor="middle" font-size="14" fill="#333333" transform="matrix(1,0,0,1,140,30)"/></g><g transform="translate(1390,500)"><rect stroke-width="2" stroke="#2c3e50" fill="#ecf0f1" stroke-dasharray="false" width="280" height="60"/><text text-vertical-anchor="middle" text-anchor="middle" font-size="14" fill="#333333" transform="matrix(1,0,0,1,140,30)"/></g><g transform="translate(1730,500)"><rect stroke-width="2" stroke="#2c3e50" fill="#ecf0f1" stroke-dasharray="false" width="280" height="60"/><text text-vertical-anchor="middle" text-anchor="middle" font-size="14" fill="#333333" transform="matrix(1,0,0,1,140,30)"/></g><g transform="translate(2080,500)"><rect stroke-width="2" stroke="#2c3e50" fill="#ecf0f1" stroke-dasharray="false" width="280" height="60"/><text text-vertical-anchor="middle" text-anchor="middle" font-size="14" fill="#333333" transform="matrix(1,0,0,1,140,30)"/></g><g><path fill="none" stroke-linejoin="round" connector="[object Object]" stroke="#2c3e50" stroke-width="2" stroke-dasharray="false" d="M -90 130 L 380 130" marker-start="url(#v-3-2063096985)" marker-end="url(#v-3-2019156546)"/></g><g><path fill="none" stroke-linejoin="round" connector="[object Object]" stroke="#2c3e50" stroke-width="2" stroke-dasharray="false" d="M 380 130 L 450 130 L 470 130 L 480 130 L 500 130 L 580 130 L 600 130 L 1690 130 L 650 130" marker-start="url(#v-3-2063096985)" marker-end="url(#v-3-2019156546)"/></g><g><path fill="none" stroke-linejoin="round" connector="[object Object]" stroke="#2c3e50" stroke-width="2" stroke-dasharray="false" d="M -90 50 L 390 50" marker-start="url(#v-3-2063096985)" marker-end="url(#v-3-2019156546)"/></g><g><path fill="none" stroke-linejoin="round" connector="[object Object]" stroke="#2c3e50" stroke-width="2" stroke-dasharray="false" d="M 390 50 L 460 130" marker-start="url(#v-3-2063096985)" marker-end="url(#v-3-2019156546)"/></g><g><path fill="none" stroke-linejoin="round" connector="[object Object]" stroke="#2c3e50" stroke-width="2" stroke-dasharray="false" d="M -90 210 L 480 210 L 500 210 L 580 210 L 600 210 L 1690 210 L 650 210" marker-start="url(#v-3-2063096985)" marker-end="url(#v-3-2019156546)"/></g><g><path fill="none" stroke-linejoin="round" connector="[object Object]" stroke="#2c3e50" stroke-width="2" stroke-dasharray="false" d="M 490 130 L 532.1913119055697 163.75304952445575 L 547.8086880944303 176.24695047554425 L 590 210" marker-start="url(#v-3-2063096985)" marker-end="url(#v-3-2019156546)"/></g><g><path fill="none" stroke-linejoin="round" connector="[object Object]" stroke="#2c3e50" stroke-width="2" stroke-dasharray="false" d="M 490 210 L 532.1913119055697 176.24695047554425 L 547.8086880944303 163.75304952445575 L 590 130" marker-start="url(#v-3-2063096985)" marker-end="url(#v-3-2019156546)"/></g><g><path fill="none" stroke-linejoin="round" connector="[object Object]" stroke="#2c3e50" stroke-width="2" stroke-dasharray="false" d="M 1690 130 L 1760 130 L 1780 130 L 2250 130" marker-start="url(#v-3-2063096985)" marker-end="url(#v-3-2019156546)"/></g><g><path fill="none" stroke-linejoin="round" connector="[object Object]" stroke="#2c3e50" stroke-width="2" stroke-dasharray="false" d="M 1690 210 L 1770 210 L 1790 210 L 2250 210" marker-start="url(#v-3-2063096985)" marker-end="url(#v-3-2019156546)"/></g><g><path fill="none" stroke-linejoin="round" connector="[object Object]" stroke="#2c3e50" stroke-width="2" stroke-dasharray="false" d="M 1780 210 L 1850 290" marker-start="url(#v-3-2063096985)" marker-end="url(#v-3-2019156546)"/></g><g><path fill="none" stroke-linejoin="round" connector="[object Object]" stroke="#2c3e50" stroke-width="2" stroke-dasharray="false" d="M 1850 50 L 1770 130" marker-start="url(#v-3-2063096985)" marker-end="url(#v-3-2019156546)"/></g><g><path fill="none" stroke-linejoin="round" connector="[object Object]" stroke="#2c3e50" stroke-width="2" stroke-dasharray="false" d="M 1850 50 L 2210 50" marker-start="url(#v-3-2063096985)" marker-end="url(#v-3-2019156546)"/></g><g><path fill="none" stroke-linejoin="round" connector="[object Object]" stroke="#2c3e50" stroke-width="2" stroke-dasharray="false" d="M 1850 290 L 2220 290" marker-start="url(#v-3-2063096985)" marker-end="url(#v-3-2019156546)"/></g><g><path fill="none" stroke-linejoin="round" connector="[object Object]" stroke="#2c3e50" stroke-width="2" stroke-dasharray="false" d="M 2210 50 L 2280 130" marker-start="url(#v-3-2063096985)" marker-end="url(#v-3-2019156546)"/></g><g><path fill="none" stroke-linejoin="round" connector="[object Object]" stroke="#2c3e50" stroke-width="2" stroke-dasharray="false" d="M 2220 290 L 2290 210" marker-start="url(#v-3-2063096985)" marker-end="url(#v-3-2019156546)"/></g><g><path fill="none" stroke-linejoin="round" connector="[object Object]" stroke="#2c3e50" stroke-width="2" stroke-dasharray="false" d="M 2250 130 L 2270 130 L 2290 130 L 2380 130" marker-start="url(#v-3-2063096985)" marker-end="url(#v-3-2019156546)"/></g><g><path fill="none" stroke-linejoin="round" connector="[object Object]" stroke="#2c3e50" stroke-width="2" stroke-dasharray="false" d="M 2250 210 L 2280 210 L 2300 210 L 2380 210" marker-start="url(#v-3-2063096985)" marker-end="url(#v-3-2019156546)"/></g><g><path fill="none" stroke-linejoin="round" connector="[object Object]" stroke="#2c3e50" stroke-width="2" stroke-dasharray="false" d="M -90 40 L -90 60" marker-start="url(#v-3-2063096985)" marker-end="url(#v-3-2019156546)"/></g><g><path fill="none" stroke-linejoin="round" connector="[object Object]" stroke="#2c3e50" stroke-width="2" stroke-dasharray="false" d="M -90 120 L -90 140" marker-start="url(#v-3-2063096985)" marker-end="url(#v-3-2019156546)"/></g><g><path fill="none" stroke-linejoin="round" connector="[object Object]" stroke="#2c3e50" stroke-width="2" stroke-dasharray="false" d="M -90 200 L -90 220" marker-start="url(#v-3-2063096985)" marker-end="url(#v-3-2019156546)"/></g><g><path fill="none" stroke-linejoin="round" connector="[object Object]" stroke="#2c3e50" stroke-width="2" stroke-dasharray="false" d="M 310 490 L 352.1913119055697 523.7530495244557 L 367.8086880944303 536.2469504755443 L 410 570" marker-start="url(#v-3-2063096985)" marker-end="url(#v-3-2019156546)"/></g><g><path fill="none" stroke-linejoin="round" connector="[object Object]" stroke="#2c3e50" stroke-width="2" stroke-dasharray="false" d="M 310 570 L 352.1913119055697 536.2469504755443 L 367.8086880944303 523.7530495244557 L 410 490" marker-start="url(#v-3-2063096985)" marker-end="url(#v-3-2019156546)"/></g><g><path fill="none" stroke-linejoin="round" connector="[object Object]" stroke="#2c3e50" stroke-width="2" stroke-dasharray="false" d="M 450 490 L 520 410" marker-start="url(#v-3-2063096985)" marker-end="url(#v-3-2019156546)"/></g><g><path fill="none" stroke-linejoin="round" connector="[object Object]" stroke="#2c3e50" stroke-width="2" stroke-dasharray="false" cursor="pointer" d="M 450 570 L 520 650" marker-start="url(#v-3-2063096985)" marker-end="url(#v-3-2019156546)"/></g><g><path fill="none" stroke-linejoin="round" connector="[object Object]" stroke="#2c3e50" stroke-width="2" stroke-dasharray="false" d="M 860 490 L 892.9289321881345 457.0710678118655 L 919.5955988548012 430.40440114519885 L 940 410" marker-start="url(#v-3-2063096985)" marker-end="url(#v-3-2019156546)"/></g><g><path fill="none" stroke-linejoin="round" connector="[object Object]" stroke="#2c3e50" stroke-width="2" stroke-dasharray="false" d="M 860 410 L 904.3890614233342 432.1945307116671 L 922.2776052433326 441.1388026216663 L 940 450" marker-start="url(#v-3-2063096985)" marker-end="url(#v-3-2019156546)"/></g><g><path fill="none" stroke-linejoin="round" connector="[object Object]" stroke="#2c3e50" stroke-width="2" stroke-dasharray="false" d="M 910 490 L 952.1913119055697 523.7530495244557 L 967.8086880944303 536.2469504755443 L 1010 570" marker-start="url(#v-3-2063096985)" marker-end="url(#v-3-2019156546)"/></g><g><path fill="none" stroke-linejoin="round" connector="[object Object]" stroke="#2c3e50" stroke-width="2" stroke-dasharray="false" cursor="move" d="M 910 570 L 952.1913119055697 536.2469504755443 L 967.8086880944303 523.7530495244557 L 1010 490" marker-start="url(#v-3-2063096985)" marker-end="url(#v-3-2019156546)"/></g><g><path fill="none" stroke-linejoin="round" connector="[object Object]" stroke="#2c3e50" stroke-width="2" stroke-dasharray="false" d="M 520 650 L 850 650 L 870 650 L 930 650 L 950 650 L 1300 650" marker-start="url(#v-3-2063096985)" marker-end="url(#v-3-2019156546)"/></g><g><path fill="none" stroke-linejoin="round" connector="[object Object]" stroke="#2c3e50" stroke-width="2" stroke-dasharray="false" d="M 520 410 L 850 410 L 870 410 L 930 410 L 950 410 L 1330 410" marker-start="url(#v-3-2063096985)" marker-end="url(#v-3-2019156546)"/></g><g><path fill="none" stroke-linejoin="round" connector="[object Object]" stroke="#2c3e50" stroke-width="2" stroke-dasharray="false" d="M 860 570 L 892.9289321881346 602.9289321881345 L 919.5955988548012 629.5955988548013 L 940 650" marker-start="url(#v-3-2063096985)" marker-end="url(#v-3-2019156546)"/></g><g><path fill="none" stroke-linejoin="round" connector="[object Object]" stroke="#2c3e50" stroke-width="2" stroke-dasharray="false" d="M 860 650 L 904.3890614233342 627.8054692883329 L 922.2776052433326 618.8611973783338 L 940 610" marker-start="url(#v-3-2063096985)" marker-end="url(#v-3-2019156546)"/></g><g><path fill="none" stroke-linejoin="round" connector="[object Object]" stroke="#2c3e50" stroke-width="2" stroke-dasharray="false" d="M 900 450 L 930 450 L 950 450 L 1300 450" marker-start="url(#v-3-2063096985)" marker-end="url(#v-3-2019156546)"/></g><g><path fill="none" stroke-linejoin="round" connector="[object Object]" stroke="#2c3e50" stroke-width="2" stroke-dasharray="false" d="M 1300 450 L 1360 490" marker-start="url(#v-3-2063096985)" marker-end="url(#v-3-2019156546)"/></g><g><path fill="none" stroke-linejoin="round" connector="[object Object]" stroke="#2c3e50" stroke-width="2" stroke-dasharray="false" d="M 900 610 L 930 610 L 950 610 L 1300 610" marker-start="url(#v-3-2063096985)" marker-end="url(#v-3-2019156546)"/></g><g><path fill="none" stroke-linejoin="round" connector="[object Object]" stroke="#2c3e50" stroke-width="2" stroke-dasharray="false" d="M 1300 610 L 1360 570" marker-start="url(#v-3-2063096985)" marker-end="url(#v-3-2019156546)"/></g><g><path fill="none" stroke-linejoin="round" connector="[object Object]" stroke="#2c3e50" stroke-width="2" stroke-dasharray="false" d="M 1360 570 L 2390 570" marker-start="url(#v-3-2063096985)" marker-end="url(#v-3-2019156546)"/></g><g><path fill="none" stroke-linejoin="round" connector="[object Object]" stroke="#2c3e50" stroke-width="2" stroke-dasharray="false" d="M 1300 650 L 2390 650" marker-start="url(#v-3-2063096985)" marker-end="url(#v-3-2019156546)"/></g><g style=""><path fill="none" stroke-linejoin="round" connector="[object Object]" stroke="#2c3e50" stroke-width="2" stroke-dasharray="false" d="M 1360 490 L 2390 490" marker-start="url(#v-3-2063096985)" marker-end="url(#v-3-2019156546)"/></g><g style=""><path fill="none" stroke-linejoin="round" connector="[object Object]" stroke="#2c3e50" stroke-width="2" stroke-dasharray="false" d="M 1330 410 L 2390 410" marker-start="url(#v-3-2063096985)" marker-end="url(#v-3-2019156546)"/></g><g><path fill="none" stroke-linejoin="round" connector="[object Object]" stroke="#2c3e50" stroke-width="2" stroke-dasharray="false" d="M 1300 560 L 1300 580" marker-start="url(#v-3-2063096985)" marker-end="url(#v-3-2019156546)"/></g><g><path fill="none" stroke-linejoin="round" connector="[object Object]" stroke="#2c3e50" stroke-width="2" stroke-dasharray="false" d="M 1300 480 L 1300 500" marker-start="url(#v-3-2063096985)" marker-end="url(#v-3-2019156546)"/></g><g style=""><path fill="none" stroke-linejoin="round" connector="[object Object]" stroke="#2c3e50" stroke-width="2" stroke-dasharray="false" d="M -90 490 L 300 490 L 320 490 L 400 490 L 420 490 L 440 490 L 460 490 L 850 490 L 870 490 L 900 490 L 920 490 L 1000 490 L 1020 490 L 1300 490" marker-start="url(#v-3-2063096985)" marker-end="url(#v-3-2019156546)"/></g><g style=""><path fill="none" stroke-linejoin="round" connector="[object Object]" stroke="#2c3e50" stroke-width="2" stroke-dasharray="false" d="M -90 570 L 190 570 L 300 570 L 320 570 L 400 570 L 420 570 L 440 570 L 460 570 L 850 570 L 870 570 L 900 570 L 920 570 L 1000 570 L 1020 570 L 1300 570" marker-start="url(#v-3-2063096985)" marker-end="url(#v-3-2019156546)"/></g><g transform="translate(230,770)"><rect stroke-width="2" stroke="#2c3e50" fill="#ecf0f1" stroke-dasharray="false" width="280" height="60"/><text text-vertical-anchor="middle" text-anchor="middle" font-size="14" fill="#333333" transform="matrix(1,0,0,1,140,30)"/></g><g transform="translate(230,930)"><rect stroke-width="2" stroke="#2c3e50" fill="#ecf0f1" stroke-dasharray="false" width="280" height="60"/><text text-vertical-anchor="middle" text-anchor="middle" font-size="14" fill="#333333" transform="matrix(1,0,0,1,140,30)"/></g><g style=""><path fill="none" stroke-linejoin="round" connector="[object Object]" stroke="#2c3e50" stroke-width="2" stroke-dasharray="false" d="M -80 760 L 10 760 L 30 760 L 110 760 L 130 760 L 630 760 L 650 760 L 810 760" marker-start="url(#v-3-2063096985)" marker-end="url(#v-3-2019156546)"/></g><g><path fill="none" stroke-linejoin="round" connector="[object Object]" stroke="#2c3e50" stroke-width="2" stroke-dasharray="false" d="M 560 840 L 640 760" marker-start="url(#v-3-2063096985)" marker-end="url(#v-3-2019156546)"/></g><g style=""><path fill="none" stroke-linejoin="round" connector="[object Object]" stroke="#2c3e50" stroke-width="2" stroke-dasharray="false" d="M -80 1000 L 10 1000 L 30 1000 L 110 1000 L 130 1000 L 550 1000 L 570 1000 L 640 1000 L 660 1000 L 820 1000" marker-start="url(#v-3-2063096985)" marker-end="url(#v-3-2019156546)"/></g><g style=""><path fill="none" stroke-linejoin="round" connector="[object Object]" stroke="#2c3e50" stroke-width="2" stroke-dasharray="false" d="M 650 1000 L 612.4740931868366 966.6436383882992 L 597.5259068131634 953.3563616117008 L 560 920" marker-start="url(#v-3-2063096985)" marker-end="url(#v-3-2019156546)"/></g><g style=""><path fill="none" stroke-linejoin="round" connector="[object Object]" stroke="#2c3e50" stroke-width="2" stroke-dasharray="false" d="M -80 920 L 10 920 L 30 920 L 110 920 L 130 920 L 550 920 L 570 920 L 640 920 L 660 920 L 750 920 L 770 920 L 1060 920" marker-start="url(#v-3-2063096985)" marker-end="url(#v-3-2019156546)"/></g><g style=""><path fill="none" stroke-linejoin="round" connector="[object Object]" stroke="#2c3e50" stroke-width="2" stroke-dasharray="false" d="M -80 840 L 10 840 L 30 840 L 110 840 L 130 840 L 550 840 L 570 840 L 660 840" marker-start="url(#v-3-2063096985)" marker-end="url(#v-3-2019156546)"/></g><g><path fill="none" stroke-linejoin="round" connector="[object Object]" stroke="#2c3e50" stroke-width="2" stroke-dasharray="false" d="M 660 840 L 760 920" marker-start="url(#v-3-2063096985)" marker-end="url(#v-3-2019156546)"/></g><g><path fill="none" stroke-linejoin="round" connector="[object Object]" stroke="#2c3e50" stroke-width="2" stroke-dasharray="false" d="M 1060 910 L 1060 930" marker-start="url(#v-3-2063096985)" marker-end="url(#v-3-2019156546)"/></g><g style=""><path fill="none" stroke-linejoin="round" connector="[object Object]" stroke="#2c3e50" stroke-width="2" stroke-dasharray="false" d="M 650 920 L 612.4740931868366 953.3563616117008 L 597.5259068131634 966.6436383882992 L 560 1000" marker-start="url(#v-3-2063096985)" marker-end="url(#v-3-2019156546)"/></g><g><path fill="none" stroke-linejoin="round" connector="[object Object]" stroke="#2c3e50" stroke-width="2" stroke-dasharray="false" d="M 810 750 L 810 770" marker-start="url(#v-3-2063096985)" marker-end="url(#v-3-2019156546)"/></g><g><path fill="none" stroke-linejoin="round" connector="[object Object]" stroke="#2c3e50" stroke-width="2" stroke-dasharray="false" d="M 820 990 L 820 1010" marker-start="url(#v-3-2063096985)" marker-end="url(#v-3-2019156546)"/></g><g transform="translate(120,250)"><rect stroke-width="2" stroke="transparent" fill="transparent" width="1" height="1" cursor="pointer"/><text font-size="36" xml:space="preserve" text-anchor="middle" fill="#2980B9" font-weight="bold" font-style="normal" font-family="&quot;Helvetica Neue&quot;, Arial, &quot;Hiragino Kaku Gothic ProN&quot;, Meiryo, YuGothic, &quot;Yu Gothic&quot;, sans-serif" writing-mode="horizontal-tb" transform="matrix(1,0,0,1,0.5,0.5)"><tspan dy="0.3em">中鉄中央</tspan></text></g><g transform="translate(820,250)"><rect stroke-width="2" stroke="transparent" fill="transparent" width="1" height="1"/><text font-size="36" xml:space="preserve" text-anchor="middle" fill="#2980B9" font-weight="bold" font-style="normal" font-family="&quot;Helvetica Neue&quot;, Arial, &quot;Hiragino Kaku Gothic ProN&quot;, Meiryo, YuGothic, &quot;Yu Gothic&quot;, sans-serif" writing-mode="horizontal-tb" transform="matrix(1,0,0,1,0.5,0.5)"><tspan dy="0.3em">豊島橋</tspan></text></g><g><path fill="none" stroke-linejoin="round" connector="[object Object]" stroke="#2c3e50" stroke-width="2" stroke-dasharray="false" d="M 20 760 L 62.1913119055697 793.7530495244557 L 77.80868809443031 806.2469504755443 L 120 840" marker-start="url(#v-3-2063096985)" marker-end="url(#v-3-2019156546)"/></g><g><path fill="none" stroke-linejoin="round" connector="[object Object]" stroke="#2c3e50" stroke-width="2" stroke-dasharray="false" d="M 20 840 L 62.1913119055697 806.2469504755443 L 77.80868809443031 793.7530495244557 L 120 760" marker-start="url(#v-3-2063096985)" marker-end="url(#v-3-2019156546)"/></g><g><path fill="none" stroke-linejoin="round" connector="[object Object]" stroke="#2c3e50" stroke-width="2" stroke-dasharray="false" d="M 20 920 L 62.1913119055697 953.7530495244557 L 77.80868809443031 966.2469504755443 L 120 1000" marker-start="url(#v-3-2063096985)" marker-end="url(#v-3-2019156546)"/></g><g><path fill="none" stroke-linejoin="round" connector="[object Object]" stroke="#2c3e50" stroke-width="2" stroke-dasharray="false" d="M 20 1000 L 62.1913119055697 966.2469504755443 L 77.80868809443031 953.7530495244557 L 120 920" marker-start="url(#v-3-2063096985)" marker-end="url(#v-3-2019156546)"/></g><g transform="translate(1160,250)"><rect stroke-width="2" stroke="transparent" fill="transparent" width="1" height="1"/><text font-size="36" xml:space="preserve" text-anchor="middle" fill="#2980B9" font-weight="bold" font-style="normal" font-family="&quot;Helvetica Neue&quot;, Arial, &quot;Hiragino Kaku Gothic ProN&quot;, Meiryo, YuGothic, &quot;Yu Gothic&quot;, sans-serif" writing-mode="horizontal-tb" transform="matrix(1,0,0,1,0.5,0.5)"><tspan dy="0.3em">新桜町</tspan></text></g><g transform="translate(1510,250)"><rect stroke-width="2" stroke="transparent" fill="transparent" width="1" height="1"/><text font-size="36" xml:space="preserve" text-anchor="middle" fill="#2980B9" font-weight="bold" font-style="normal" font-family="&quot;Helvetica Neue&quot;, Arial, &quot;Hiragino Kaku Gothic ProN&quot;, Meiryo, YuGothic, &quot;Yu Gothic&quot;, sans-serif" writing-mode="horizontal-tb" transform="matrix(1,0,0,1,0.5,0.5)"><tspan dy="0.3em">千海</tspan></text></g><g transform="translate(2030,330)"><rect stroke-width="2" stroke="transparent" fill="transparent" width="1" height="1"/><text font-size="36" xml:space="preserve" text-anchor="middle" fill="#2980B9" font-weight="bold" font-style="normal" font-family="&quot;Helvetica Neue&quot;, Arial, &quot;Hiragino Kaku Gothic ProN&quot;, Meiryo, YuGothic, &quot;Yu Gothic&quot;, sans-serif" writing-mode="horizontal-tb" transform="matrix(1,0,0,1,0.5,0.5)"><tspan dy="0.3em">東長野</tspan></text></g><g transform="translate(70,610)"><rect stroke-width="2" stroke="transparent" fill="transparent" width="1" height="1"/><text font-size="36" xml:space="preserve" text-anchor="middle" fill="#2980B9" font-weight="bold" font-style="normal" font-family="&quot;Helvetica Neue&quot;, Arial, &quot;Hiragino Kaku Gothic ProN&quot;, Meiryo, YuGothic, &quot;Yu Gothic&quot;, sans-serif" writing-mode="horizontal-tb" transform="matrix(1,0,0,1,0.5,0.5)"><tspan dy="0.3em">山田橋</tspan></text></g><g transform="translate(670,690)"><rect stroke-width="2" stroke="transparent" fill="transparent" width="1" height="1"/><text font-size="36" xml:space="preserve" text-anchor="middle" fill="#2980B9" font-weight="bold" font-style="normal" font-family="&quot;Helvetica Neue&quot;, Arial, &quot;Hiragino Kaku Gothic ProN&quot;, Meiryo, YuGothic, &quot;Yu Gothic&quot;, sans-serif" writing-mode="horizontal-tb" transform="matrix(1,0,0,1,0.5,0.5)"><tspan dy="0.3em">小泉公園</tspan></text></g><g transform="translate(1540,700)"><rect stroke-width="2" stroke="transparent" fill="transparent" width="1" height="1"/><text font-size="36" xml:space="preserve" text-anchor="middle" fill="#2980B9" font-weight="bold" font-style="normal" font-family="&quot;Helvetica Neue&quot;, Arial, &quot;Hiragino Kaku Gothic ProN&quot;, Meiryo, YuGothic, &quot;Yu Gothic&quot;, sans-serif" writing-mode="horizontal-tb" transform="matrix(1,0,0,1,0.5,0.5)"><tspan dy="0.3em">古谷</tspan></text></g><g transform="translate(1870,700)"><rect stroke-width="2" stroke="transparent" fill="transparent" width="1" height="1"/><text font-size="36" xml:space="preserve" text-anchor="middle" fill="#2980B9" font-weight="bold" font-style="normal" font-family="&quot;Helvetica Neue&quot;, Arial, &quot;Hiragino Kaku Gothic ProN&quot;, Meiryo, YuGothic, &quot;Yu Gothic&quot;, sans-serif" writing-mode="horizontal-tb" transform="matrix(1,0,0,1,0.5,0.5)"><tspan dy="0.3em">秋杉</tspan></text></g><g transform="translate(2230,700)"><rect stroke-width="2" stroke="transparent" fill="transparent" width="1" height="1"/><text font-size="36" xml:space="preserve" text-anchor="middle" fill="#2980B9" font-weight="bold" font-style="normal" font-family="&quot;Helvetica Neue&quot;, Arial, &quot;Hiragino Kaku Gothic ProN&quot;, Meiryo, YuGothic, &quot;Yu Gothic&quot;, sans-serif" writing-mode="horizontal-tb" transform="matrix(1,0,0,1,0.5,0.5)"><tspan dy="0.3em">東福岡</tspan></text></g><g transform="translate(370,1050)"><rect stroke-width="2" stroke="transparent" fill="transparent" width="1" height="1"/><text font-size="36" xml:space="preserve" text-anchor="middle" fill="#2980B9" font-weight="bold" font-style="normal" font-family="&quot;Helvetica Neue&quot;, Arial, &quot;Hiragino Kaku Gothic ProN&quot;, Meiryo, YuGothic, &quot;Yu Gothic&quot;, sans-serif" writing-mode="horizontal-tb" transform="matrix(1,0,0,1,0.5,0.5)"><tspan dy="0.3em">猿沼</tspan></text></g><g transform="translate(90,-100)"><rect stroke-width="2" stroke="transparent" fill="transparent" width="1" height="1"/><text font-size="48" xml:space="preserve" text-anchor="middle" fill="#2980B9" font-weight="bold" font-style="normal" font-family="&quot;Helvetica Neue&quot;, Arial, &quot;Hiragino Kaku Gothic ProN&quot;, Meiryo, YuGothic, &quot;Yu Gothic&quot;, sans-serif" writing-mode="horizontal-tb" transform="matrix(1,0,0,1,0.5,0.5)"><tspan dy="0.3em">中田鉄道　配線略図</tspan></text></g></g></svg>